inDegrees=no
num_controls=7
num_derivatives=13
num_iterations=143
num_multipliers=7
num_parameters=0
num_slacks=7
num_states=26
objective=5.005370
objective_accelerations=0.372174
objective_balance=0.034204
objective_effort=0.176777
objective_height=4.399571
objective_ligament=0.022644
solver_duration=1596.135576
status=Solve_Succeeded
success=true
DataType=double
version=3
OpenSimVersion=4.4-2022-07-23-0e9fedc
endheader
time	/jointset/ground_pelvis/pelvis_tilt/value	/jointset/ground_pelvis/pelvis_tx/value	/jointset/ground_pelvis/pelvis_ty/value	/jointset/hip_l/hip_flexion_l/value	/jointset/hip_l/hip_adduction_l/value	/jointset/hip_l/hip_rotation_l/value	/jointset/back/lumbar_extension/value	/jointset/patellofemoral_l/patellar_flexion_l/value	/jointset/knee_l/knee_flexion_l/value	/jointset/knee_l/knee_adduction_l/value	/jointset/knee_l/knee_rotation_l/value	/jointset/ankle_l/ankle_angle_l/value	/jointset/subtalar_l/subtalar_angle_l/value	/jointset/ground_pelvis/pelvis_tilt/speed	/jointset/ground_pelvis/pelvis_tx/speed	/jointset/ground_pelvis/pelvis_ty/speed	/jointset/hip_l/hip_flexion_l/speed	/jointset/hip_l/hip_adduction_l/speed	/jointset/hip_l/hip_rotation_l/speed	/jointset/back/lumbar_extension/speed	/jointset/patellofemoral_l/patellar_flexion_l/speed	/jointset/knee_l/knee_flexion_l/speed	/jointset/knee_l/knee_adduction_l/speed	/jointset/knee_l/knee_rotation_l/speed	/jointset/ankle_l/ankle_angle_l/speed	/jointset/subtalar_l/subtalar_angle_l/speed	/forceset/tau_hip_flexion_l	/forceset/tau_hip_adduction_l	/forceset/tau_hip_rotation_l	/forceset/tau_knee_flexion_l	/forceset/tau_ankle_angle_l	/forceset/tau_subtalar_angle_l	/forceset/tau_lumbar_extension	lambda_cid13_p0	lambda_cid13_p1	lambda_cid13_p2	lambda_cid13_p3	lambda_cid13_p4	lambda_cid13_p5	lambda_cid14_p0	/jointset/ground_pelvis/pelvis_tilt/accel	/jointset/ground_pelvis/pelvis_tx/accel	/jointset/ground_pelvis/pelvis_ty/accel	/jointset/hip_l/hip_flexion_l/accel	/jointset/hip_l/hip_adduction_l/accel	/jointset/hip_l/hip_rotation_l/accel	/jointset/back/lumbar_extension/accel	/jointset/patellofemoral_l/patellar_flexion_l/accel	/jointset/knee_l/knee_flexion_l/accel	/jointset/knee_l/knee_adduction_l/accel	/jointset/knee_l/knee_rotation_l/accel	/jointset/ankle_l/ankle_angle_l/accel	/jointset/subtalar_l/subtalar_angle_l/accel	gamma_cid13_p0	gamma_cid13_p1	gamma_cid13_p2	gamma_cid13_p3	gamma_cid13_p4	gamma_cid13_p5	gamma_cid14_p0
0.5	-0.1309684138520587	0.06653412124531007	0.8197251474804655	0.6355603829344856	-0.4444222848072803	-0.2888375999307646	-0.2425298869372456	0.6831442184540975	0.6831442184540865	-0.1662747103074244	-0.1703791235298333	0.2151041951347666	0.0211885245282555	-0.2290412842535998	0.004083367252231928	-0.3016547385058863	1.238421609890193	-0.2570512062526653	0.6858527908245987	-0.1662526626977417	1.647299964987863	1.647299964987919	0.009402324968167716	-0.02866771881848156	0.7613055476118702	0.1288245942967657	-0.07288108722081149	0.03056634010660237	-0.01111273515008272	-0.2177917401004201	-0.02375062469357899	0.02807257593416206	0.102806328235622	-40.77027804600607	-10.34395279559427	7.356344636656964	4.751057684408432	-532.3440829749584	-72.60754668294022	-31.2784142637861	0.09946126147069963	0.1163551423353679	-0.2925018098419485	-0.5327644270478245	0.5782026454825953	-0.1599594564048858	0.7655933168636238	-1.135811730906651	-1.135811730906641	-0.06779948900756635	0.08704060154521817	-0.5014501440173746	0.4713262058815776	-1.086719565059861e-07	-9.496451853107931e-07	1.806888622574732e-07	-1.792756221547622e-07	-6.455596071492459e-08	-5.255218684390789e-07	-1.131417271256819e-07
0.51	-0.1332534625235328	0.06658075431257152	0.8166946066164148	0.6479157780278135	-0.4469640467019521	-0.281989000610338	-0.2441541800486483	0.6995580918878217	0.6995580918878159	-0.1661843954945402	-0.1706625343097265	0.2226909309872021	0.02249955965439607	-0.2279471770603645	0.005239854165327584	-0.3043896899607073	1.232483337872268	-0.2512843341615013	0.683763959764802	-0.1585929685623627	1.635249436014673	1.635249436014738	0.008668913634835566	-0.02800999083675043	0.755935145921208	0.133356656680452	-0.07526263467877728	0.03249198747264628	-0.01102308248680359	-0.2200425529784936	-0.027127806198364	0.0282792866726858	0.1048202559852576	-41.92756410662722	-10.19526400265027	7.291711785426298	5.214533200708204	-534.2578719329662	-72.39738782936672	-30.53350403586433	0.1175896827995288	0.1147527387089339	-0.2544464386822266	-0.6504551003209507	0.5785134033123074	-0.2489094557986255	0.768106115057637	-1.273442878738809	-1.273442878737445	-0.07499685866558883	0.05584627962026355	-0.570844629585893	0.4404020776973098	-1.241609641772409e-07	-8.804304922862934e-07	2.522800283243548e-07	-1.583910158453589e-07	-8.434217175642083e-08	-5.313510426564565e-07	-1.165609968968644e-07
0.52	-0.1355269292761679	0.06663884370354622	0.8136386253127398	0.6602065710987274	-0.4494476230932371	-0.2751644025055133	-0.2457014864880618	0.7158447061521717	0.7158447061521718	-0.1661011917756214	-0.1709392263331795	0.2302207609331322	0.02385516656899055	-0.2267249004851365	0.006374631994880363	-0.3067428264307441	1.225501205408097	-0.245414105575179	0.6810525477037441	-0.1508553282996712	1.621848131112937	1.621848131113011	0.00798010617472327	-0.02732396752968877	0.7499243663107358	0.137738951987546	-0.0776441821367508	0.03441763483870066	-0.0109334298235047	-0.2222933658565685	-0.03050498770314384	0.02848599741122608	0.1068341837348798	-43.08798070248712	-10.04577751101441	7.226667351264696	5.669669372521932	-536.2298957309083	-72.21137670820862	-29.79099649774153	0.1250951378692728	0.112013325626765	-0.2161388128850876	-0.7415365162968925	0.5988739445142628	-0.2844756566571163	0.7811825423261683	-1.405966916615935	-1.405966916615916	-0.0588787143635825	0.09269966661132895	-0.6295257279794408	0.4413727905631243	-1.300506840883961e-07	-7.810382840118979e-07	3.054774596430078e-07	-1.357260945968136e-07	-9.031771638800328e-08	-5.106681218235116e-07	-1.150363347069865e-07
0.53	-0.1377875880819234	0.0667082139841849	0.8105610460730823	0.6724223712574197	-0.4518720532170952	-0.2683695501600166	-0.2471711096414039	0.7319906466785081	0.7319906466785108	-0.166024898323423	-0.1712085496051207	0.2376874180674651	0.02525381794255746	-0.225387878730777	0.007500527375719974	-0.3087066601311831	1.217483390804747	-0.239463077960083	0.677824423876205	-0.1430673544564748	1.60712597338272	1.607125973382787	0.007277004619750727	-0.02653243255785762	0.7433136859417635	0.1419622780906191	-0.07968187137157394	0.03573618019186302	-0.01091677807771237	-0.2251679498217592	-0.03309756926811187	0.0287628235383826	0.1085908034336199	-43.99502029233154	-9.978000670998441	7.182523706209228	5.906465607191985	-538.2021953484917	-72.22062559143194	-29.05544328324475	0.1408577287459626	0.113018366418137	-0.1765701344640432	-0.8582144266611802	0.5945636892405622	-0.3560997298313126	0.7778969922681307	-1.537417469888326	-1.537417469889436	-0.07635307240373071	0.0736763342434993	-0.690877460747102	0.4085334631182788	-1.271632960445706e-07	-7.33223295110945e-07	2.999381585914524e-07	-1.273242845545244e-07	-8.490084128414101e-08	-4.88928945087685e-07	-1.101358760024026e-07
